#usda 1.0
(
    defaultPrim = "Arena"
    metersPerUnit = 1
    upAxis = "Z"
)

def Xform "Arena"
{
    def Cube "Floor" (
        prepend apiSchemas = ["PhysicsCollisionAPI", "MaterialBindingAPI"]
    )
    {
        rel material:binding = </Arena/Floor/Looks/Arena>
        bool physics:collisionEnabled = 1
        double size = 1
        float3 xformOp:scale = (4, 3, 0.02)
        double3 xformOp:translate = (2, 1.5, -0.01)
        uniform token[] xformOpOrder = ["xformOp:translate", "xformOp:scale"]

        def "Looks"
        {
            def Material "Arena"
            {
                token outputs:surface.connect = </Arena/Floor/Looks/Arena/Shader.outputs:surface>

                def Shader "Shader"
                {
                    uniform token info:id = "UsdPreviewSurface"
                    color3f inputs:diffuseColor = (0.3, 0.48, 0.72)
                    float inputs:metallic = 0
                    float inputs:roughness = 0.65
                    token outputs:surface
                }
            }
        }
    }

    def Cube "WallSouth" (
        prepend apiSchemas = ["PhysicsCollisionAPI", "MaterialBindingAPI"]
    )
    {
        rel material:binding = </Arena/WallSouth/Looks/Arena>
        bool physics:collisionEnabled = 1
        double size = 1
        float3 xformOp:scale = (4.12, 0.06, 0.35)
        double3 xformOp:translate = (2, -0.03, 0.175)
        uniform token[] xformOpOrder = ["xformOp:translate", "xformOp:scale"]

        def "Looks"
        {
            def Material "Arena"
            {
                token outputs:surface.connect = </Arena/WallSouth/Looks/Arena/Shader.outputs:surface>

                def Shader "Shader"
                {
                    uniform token info:id = "UsdPreviewSurface"
                    color3f inputs:diffuseColor = (0.28, 0.82, 0.86)
                    float inputs:metallic = 0
                    float inputs:roughness = 0.65
                    token outputs:surface
                }
            }
        }
    }

    def Cube "WallNorth" (
        prepend apiSchemas = ["PhysicsCollisionAPI", "MaterialBindingAPI"]
    )
    {
        rel material:binding = </Arena/WallNorth/Looks/Arena>
        bool physics:collisionEnabled = 1
        double size = 1
        float3 xformOp:scale = (4.12, 0.06, 0.35)
        double3 xformOp:translate = (2, 3.03, 0.175)
        uniform token[] xformOpOrder = ["xformOp:translate", "xformOp:scale"]

        def "Looks"
        {
            def Material "Arena"
            {
                token outputs:surface.connect = </Arena/WallNorth/Looks/Arena/Shader.outputs:surface>

                def Shader "Shader"
                {
                    uniform token info:id = "UsdPreviewSurface"
                    color3f inputs:diffuseColor = (0.28, 0.82, 0.86)
                    float inputs:metallic = 0
                    float inputs:roughness = 0.65
                    token outputs:surface
                }
            }
        }
    }

    def Cube "WallWest" (
        prepend apiSchemas = ["PhysicsCollisionAPI", "MaterialBindingAPI"]
    )
    {
        rel material:binding = </Arena/WallWest/Looks/Arena>
        bool physics:collisionEnabled = 1
        double size = 1
        float3 xformOp:scale = (0.06, 3, 0.35)
        double3 xformOp:translate = (-0.03, 1.5, 0.175)
        uniform token[] xformOpOrder = ["xformOp:translate", "xformOp:scale"]

        def "Looks"
        {
            def Material "Arena"
            {
                token outputs:surface.connect = </Arena/WallWest/Looks/Arena/Shader.outputs:surface>

                def Shader "Shader"
                {
                    uniform token info:id = "UsdPreviewSurface"
                    color3f inputs:diffuseColor = (0.28, 0.82, 0.86)
                    float inputs:metallic = 0
                    float inputs:roughness = 0.65
                    token outputs:surface
                }
            }
        }
    }

    def Cube "WallEast" (
        prepend apiSchemas = ["PhysicsCollisionAPI", "MaterialBindingAPI"]
    )
    {
        rel material:binding = </Arena/WallEast/Looks/Arena>
        bool physics:collisionEnabled = 1
        double size = 1
        float3 xformOp:scale = (0.06, 3, 0.35)
        double3 xformOp:translate = (4.03, 1.5, 0.175)
        uniform token[] xformOpOrder = ["xformOp:translate", "xformOp:scale"]

        def "Looks"
        {
            def Material "Arena"
            {
                token outputs:surface.connect = </Arena/WallEast/Looks/Arena/Shader.outputs:surface>

                def Shader "Shader"
                {
                    uniform token info:id = "UsdPreviewSurface"
                    color3f inputs:diffuseColor = (0.28, 0.82, 0.86)
                    float inputs:metallic = 0
                    float inputs:roughness = 0.65
                    token outputs:surface
                }
            }
        }
    }

    def Cube "ZoneStart" (
        prepend apiSchemas = ["PhysicsCollisionAPI", "MaterialBindingAPI"]
    )
    {
        rel material:binding = </Arena/ZoneStart/Looks/Arena>
        bool physics:collisionEnabled = 0
        double size = 1
        float3 xformOp:scale = (0.72, 0.72, 0.008)
        double3 xformOp:translate = (0.45, 2.55, 0.004)
        uniform token[] xformOpOrder = ["xformOp:translate", "xformOp:scale"]

        def "Looks"
        {
            def Material "Arena"
            {
                token outputs:surface.connect = </Arena/ZoneStart/Looks/Arena/Shader.outputs:surface>

                def Shader "Shader"
                {
                    uniform token info:id = "UsdPreviewSurface"
                    color3f inputs:diffuseColor = (0.88, 0.85, 0.2)
                    float inputs:metallic = 0
                    float inputs:roughness = 0.65
                    token outputs:surface
                }
            }
        }
    }

    def Cube "ZonePark" (
        prepend apiSchemas = ["PhysicsCollisionAPI", "MaterialBindingAPI"]
    )
    {
        rel material:binding = </Arena/ZonePark/Looks/Arena>
        bool physics:collisionEnabled = 0
        double size = 1
        float3 xformOp:scale = (0.72, 0.72, 0.008)
        double3 xformOp:translate = (3.55, 2.55, 0.004)
        uniform token[] xformOpOrder = ["xformOp:translate", "xformOp:scale"]

        def "Looks"
        {
            def Material "Arena"
            {
                token outputs:surface.connect = </Arena/ZonePark/Looks/Arena/Shader.outputs:surface>

                def Shader "Shader"
                {
                    uniform token info:id = "UsdPreviewSurface"
                    color3f inputs:diffuseColor = (0.88, 0.85, 0.2)
                    float inputs:metallic = 0
                    float inputs:roughness = 0.65
                    token outputs:surface
                }
            }
        }
    }

    def Cube "PickupBack" (
        prepend apiSchemas = ["PhysicsCollisionAPI", "MaterialBindingAPI"]
    )
    {
        rel material:binding = </Arena/PickupBack/Looks/Arena>
        bool physics:collisionEnabled = 1
        double size = 1
        float3 xformOp:scale = (0.03, 1.2, 0.8)
        double3 xformOp:translate = (2.085, 0.85, 0.4)
        uniform token[] xformOpOrder = ["xformOp:translate", "xformOp:scale"]

        def "Looks"
        {
            def Material "Arena"
            {
                token outputs:surface.connect = </Arena/PickupBack/Looks/Arena/Shader.outputs:surface>

                def Shader "Shader"
                {
                    uniform token info:id = "UsdPreviewSurface"
                    color3f inputs:diffuseColor = (0.9, 0.91, 0.93)
                    float inputs:metallic = 0
                    float inputs:roughness = 0.65
                    token outputs:surface
                }
            }
        }
    }

    def Cube "PickupBase" (
        prepend apiSchemas = ["PhysicsCollisionAPI", "MaterialBindingAPI"]
    )
    {
        rel material:binding = </Arena/PickupBase/Looks/Arena>
        bool physics:collisionEnabled = 1
        double size = 1
        float3 xformOp:scale = (0.4, 1.2, 0.3)
        double3 xformOp:translate = (2.27, 0.85, 0.15)
        uniform token[] xformOpOrder = ["xformOp:translate", "xformOp:scale"]

        def "Looks"
        {
            def Material "Arena"
            {
                token outputs:surface.connect = </Arena/PickupBase/Looks/Arena/Shader.outputs:surface>

                def Shader "Shader"
                {
                    uniform token info:id = "UsdPreviewSurface"
                    color3f inputs:diffuseColor = (0.9, 0.91, 0.93)
                    float inputs:metallic = 0
                    float inputs:roughness = 0.65
                    token outputs:surface
                }
            }
        }
    }

    def Cube "PickupSideS" (
        prepend apiSchemas = ["PhysicsCollisionAPI", "MaterialBindingAPI"]
    )
    {
        rel material:binding = </Arena/PickupSideS/Looks/Arena>
        bool physics:collisionEnabled = 1
        double size = 1
        float3 xformOp:scale = (0.4, 0.03, 0.8)
        double3 xformOp:translate = (2.27, 0.265, 0.4)
        uniform token[] xformOpOrder = ["xformOp:translate", "xformOp:scale"]

        def "Looks"
        {
            def Material "Arena"
            {
                token outputs:surface.connect = </Arena/PickupSideS/Looks/Arena/Shader.outputs:surface>

                def Shader "Shader"
                {
                    uniform token info:id = "UsdPreviewSurface"
                    color3f inputs:diffuseColor = (0.9, 0.91, 0.93)
                    float inputs:metallic = 0
                    float inputs:roughness = 0.65
                    token outputs:surface
                }
            }
        }
    }

    def Cube "PickupSideN" (
        prepend apiSchemas = ["PhysicsCollisionAPI", "MaterialBindingAPI"]
    )
    {
        rel material:binding = </Arena/PickupSideN/Looks/Arena>
        bool physics:collisionEnabled = 1
        double size = 1
        float3 xformOp:scale = (0.4, 0.03, 0.8)
        double3 xformOp:translate = (2.27, 1.435, 0.4)
        uniform token[] xformOpOrder = ["xformOp:translate", "xformOp:scale"]

        def "Looks"
        {
            def Material "Arena"
            {
                token outputs:surface.connect = </Arena/PickupSideN/Looks/Arena/Shader.outputs:surface>

                def Shader "Shader"
                {
                    uniform token info:id = "UsdPreviewSurface"
                    color3f inputs:diffuseColor = (0.9, 0.91, 0.93)
                    float inputs:metallic = 0
                    float inputs:roughness = 0.65
                    token outputs:surface
                }
            }
        }
    }

    def Cube "PickupTierLow" (
        prepend apiSchemas = ["PhysicsCollisionAPI", "MaterialBindingAPI"]
    )
    {
        rel material:binding = </Arena/PickupTierLow/Looks/Arena>
        bool physics:collisionEnabled = 1
        double size = 1
        float3 xformOp:scale = (0.37, 1.14, 0.03)
        double3 xformOp:translate = (2.285, 0.85, 0.235)
        uniform token[] xformOpOrder = ["xformOp:translate", "xformOp:scale"]

        def "Looks"
        {
            def Material "Arena"
            {
                token outputs:surface.connect = </Arena/PickupTierLow/Looks/Arena/Shader.outputs:surface>

                def Shader "Shader"
                {
                    uniform token info:id = "UsdPreviewSurface"
                    color3f inputs:diffuseColor = (0.9, 0.91, 0.93)
                    float inputs:metallic = 0
                    float inputs:roughness = 0.65
                    token outputs:surface
                }
            }
        }
    }

    def Cube "PickupTierHigh" (
        prepend apiSchemas = ["PhysicsCollisionAPI", "MaterialBindingAPI"]
    )
    {
        rel material:binding = </Arena/PickupTierHigh/Looks/Arena>
        bool physics:collisionEnabled = 1
        double size = 1
        float3 xformOp:scale = (0.37, 1.14, 0.03)
        double3 xformOp:translate = (2.285, 0.85, 0.565)
        uniform token[] xformOpOrder = ["xformOp:translate", "xformOp:scale"]

        def "Looks"
        {
            def Material "Arena"
            {
                token outputs:surface.connect = </Arena/PickupTierHigh/Looks/Arena/Shader.outputs:surface>

                def Shader "Shader"
                {
                    uniform token info:id = "UsdPreviewSurface"
                    color3f inputs:diffuseColor = (0.9, 0.91, 0.93)
                    float inputs:metallic = 0
                    float inputs:roughness = 0.65
                    token outputs:surface
                }
            }
        }
    }

    def Cube "TransferBack" (
        prepend apiSchemas = ["PhysicsCollisionAPI", "MaterialBindingAPI"]
    )
    {
        rel material:binding = </Arena/TransferBack/Looks/Arena>
        bool physics:collisionEnabled = 1
        double size = 1
        float3 xformOp:scale = (0.03, 1.1, 0.6)
        double3 xformOp:translate = (0.5549999999999999, 0.85, 0.3)
        uniform token[] xformOpOrder = ["xformOp:translate", "xformOp:scale"]

        def "Looks"
        {
            def Material "Arena"
            {
                token outputs:surface.connect = </Arena/TransferBack/Looks/Arena/Shader.outputs:surface>

                def Shader "Shader"
                {
                    uniform token info:id = "UsdPreviewSurface"
                    color3f inputs:diffuseColor = (0.86, 0.87, 0.9)
                    float inputs:metallic = 0
                    float inputs:roughness = 0.65
                    token outputs:surface
                }
            }
        }
    }

    def Cube "TransferBase" (
        prepend apiSchemas = ["PhysicsCollisionAPI", "MaterialBindingAPI"]
    )
    {
        rel material:binding = </Arena/TransferBase/Looks/Arena>
        bool physics:collisionEnabled = 1
        double size = 1
        float3 xformOp:scale = (0.42, 1.1, 0.3)
        double3 xformOp:translate = (0.75, 0.85, 0.15)
        uniform token[] xformOpOrder = ["xformOp:translate", "xformOp:scale"]

        def "Looks"
        {
            def Material "Arena"
            {
                token outputs:surface.connect = </Arena/TransferBase/Looks/Arena/Shader.outputs:surface>

                def Shader "Shader"
                {
                    uniform token info:id = "UsdPreviewSurface"
                    color3f inputs:diffuseColor = (0.86, 0.87, 0.9)
                    float inputs:metallic = 0
                    float inputs:roughness = 0.65
                    token outputs:surface
                }
            }
        }
    }

    def Cube "TransferPlatform" (
        prepend apiSchemas = ["PhysicsCollisionAPI", "MaterialBindingAPI"]
    )
    {
        rel material:binding = </Arena/TransferPlatform/Looks/Arena>
        bool physics:collisionEnabled = 1
        double size = 1
        float3 xformOp:scale = (0.39, 1.04, 0.03)
        double3 xformOp:translate = (0.765, 0.85, 0.235)
        uniform token[] xformOpOrder = ["xformOp:translate", "xformOp:scale"]

        def "Looks"
        {
            def Material "Arena"
            {
                token outputs:surface.connect = </Arena/TransferPlatform/Looks/Arena/Shader.outputs:surface>

                def Shader "Shader"
                {
                    uniform token info:id = "UsdPreviewSurface"
                    color3f inputs:diffuseColor = (0.86, 0.87, 0.9)
                    float inputs:metallic = 0
                    float inputs:roughness = 0.65
                    token outputs:surface
                }
            }
        }
    }

    def Cube "TransferTop" (
        prepend apiSchemas = ["PhysicsCollisionAPI", "MaterialBindingAPI"]
    )
    {
        rel material:binding = </Arena/TransferTop/Looks/Arena>
        bool physics:collisionEnabled = 1
        double size = 1
        float3 xformOp:scale = (0.42, 1.1, 0.03)
        double3 xformOp:translate = (0.75, 0.85, 0.585)
        uniform token[] xformOpOrder = ["xformOp:translate", "xformOp:scale"]

        def "Looks"
        {
            def Material "Arena"
            {
                token outputs:surface.connect = </Arena/TransferTop/Looks/Arena/Shader.outputs:surface>

                def Shader "Shader"
                {
                    uniform token info:id = "UsdPreviewSurface"
                    color3f inputs:diffuseColor = (0.86, 0.87, 0.9)
                    float inputs:metallic = 0
                    float inputs:roughness = 0.65
                    token outputs:surface
                }
            }
        }
    }

    def Cube "TransferSideS" (
        prepend apiSchemas = ["PhysicsCollisionAPI", "MaterialBindingAPI"]
    )
    {
        rel material:binding = </Arena/TransferSideS/Looks/Arena>
        bool physics:collisionEnabled = 1
        double size = 1
        float3 xformOp:scale = (0.42, 0.03, 0.6)
        double3 xformOp:translate = (0.75, 0.31499999999999995, 0.3)
        uniform token[] xformOpOrder = ["xformOp:translate", "xformOp:scale"]

        def "Looks"
        {
            def Material "Arena"
            {
                token outputs:surface.connect = </Arena/TransferSideS/Looks/Arena/Shader.outputs:surface>

                def Shader "Shader"
                {
                    uniform token info:id = "UsdPreviewSurface"
                    color3f inputs:diffuseColor = (0.86, 0.87, 0.9)
                    float inputs:metallic = 0
                    float inputs:roughness = 0.65
                    token outputs:surface
                }
            }
        }
    }

    def Cube "TransferSideN" (
        prepend apiSchemas = ["PhysicsCollisionAPI", "MaterialBindingAPI"]
    )
    {
        rel material:binding = </Arena/TransferSideN/Looks/Arena>
        bool physics:collisionEnabled = 1
        double size = 1
        float3 xformOp:scale = (0.42, 0.03, 0.6)
        double3 xformOp:translate = (0.75, 1.385, 0.3)
        uniform token[] xformOpOrder = ["xformOp:translate", "xformOp:scale"]

        def "Looks"
        {
            def Material "Arena"
            {
                token outputs:surface.connect = </Arena/TransferSideN/Looks/Arena/Shader.outputs:surface>

                def Shader "Shader"
                {
                    uniform token info:id = "UsdPreviewSurface"
                    color3f inputs:diffuseColor = (0.86, 0.87, 0.9)
                    float inputs:metallic = 0
                    float inputs:roughness = 0.65
                    token outputs:surface
                }
            }
        }
    }

    def Xform "RaycastProxy"
    {
        def Mesh "Mesh"
        {
            int[] faceVertexCounts = [3, 3, 3, 3, 3, 3, 3, 3, 3, 3, 3, 3, 3, 3, 3, 3, 3, 3, 3, 3, 3, 3, 3, 3, 3, 3, 3, 3, 3, 3, 3, 3, 3, 3, 3, 3, 3, 3, 3, 3, 3, 3, 3, 3, 3, 3, 3, 3, 3, 3, 3, 3, 3, 3, 3, 3, 3, 3, 3, 3, 3, 3, 3, 3, 3, 3, 3, 3, 3, 3, 3, 3, 3, 3, 3, 3, 3, 3, 3, 3, 3, 3, 3, 3, 3, 3, 3, 3, 3, 3, 3, 3, 3, 3, 3, 3, 3, 3, 3, 3, 3, 3, 3, 3, 3, 3, 3, 3, 3, 3, 3, 3, 3, 3, 3, 3, 3, 3, 3, 3, 3, 3, 3, 3, 3, 3, 3, 3, 3, 3, 3, 3, 3, 3, 3, 3, 3, 3, 3, 3, 3, 3, 3, 3, 3, 3, 3, 3, 3, 3, 3, 3, 3, 3, 3, 3, 3, 3, 3, 3, 3, 3, 3, 3, 3, 3, 3, 3, 3, 3, 3, 3, 3, 3, 3, 3, 3, 3, 3, 3, 3, 3, 3, 3, 3, 3, 3, 3, 3, 3, 3, 3, 3, 3, 3, 3, 3, 3, 3, 3, 3, 3, 3, 3, 3, 3, 3, 3, 3, 3, 3, 3, 3, 3, 3, 3, 3, 3, 3, 3, 3, 3, 3, 3, 3, 3, 3, 3]
            int[] faceVertexIndices = [0, 1, 2, 0, 2, 3, 4, 6, 5, 4, 7, 6, 0, 4, 5, 0, 5, 1, 1, 5, 6, 1, 6, 2, 2, 6, 7, 2, 7, 3, 3, 7, 4, 3, 4, 0, 8, 9, 10, 8, 10, 11, 12, 14, 13, 12, 15, 14, 8, 12, 13, 8, 13, 9, 9, 13, 14, 9, 14, 10, 10, 14, 15, 10, 15, 11, 11, 15, 12, 11, 12, 8, 16, 17, 18, 16, 18, 19, 20, 22, 21, 20, 23, 22, 16, 20, 21, 16, 21, 17, 17, 21, 22, 17, 22, 18, 18, 22, 23, 18, 23, 19, 19, 23, 20, 19, 20, 16, 24, 25, 26, 24, 26, 27, 28, 30, 29, 28, 31, 30, 24, 28, 29, 24, 29, 25, 25, 29, 30, 25, 30, 26, 26, 30, 31, 26, 31, 27, 27, 31, 28, 27, 28, 24, 32, 33, 34, 32, 34, 35, 36, 38, 37, 36, 39, 38, 32, 36, 37, 32, 37, 33, 33, 37, 38, 33, 38, 34, 34, 38, 39, 34, 39, 35, 35, 39, 36, 35, 36, 32, 40, 41, 42, 40, 42, 43, 44, 46, 45, 44, 47, 46, 40, 44, 45, 40, 45, 41, 41, 45, 46, 41, 46, 42, 42, 46, 47, 42, 47, 43, 43, 47, 44, 43, 44, 40, 48, 49, 50, 48, 50, 51, 52, 54, 53, 52, 55, 54, 48, 52, 53, 48, 53, 49, 49, 53, 54, 49, 54, 50, 50, 54, 55, 50, 55, 51, 51, 55, 52, 51, 52, 48, 56, 57, 58, 56, 58, 59, 60, 62, 61, 60, 63, 62, 56, 60, 61, 56, 61, 57, 57, 61, 62, 57, 62, 58, 58, 62, 63, 58, 63, 59, 59, 63, 60, 59, 60, 56, 64, 65, 66, 64, 66, 67, 68, 70, 69, 68, 71, 70, 64, 68, 69, 64, 69, 65, 65, 69, 70, 65, 70, 66, 66, 70, 71, 66, 71, 67, 67, 71, 68, 67, 68, 64, 72, 73, 74, 72, 74, 75, 76, 78, 77, 76, 79, 78, 72, 76, 77, 72, 77, 73, 73, 77, 78, 73, 78, 74, 74, 78, 79, 74, 79, 75, 75, 79, 76, 75, 76, 72, 80, 81, 82, 80, 82, 83, 84, 86, 85, 84, 87, 86, 80, 84, 85, 80, 85, 81, 81, 85, 86, 81, 86, 82, 82, 86, 87, 82, 87, 83, 83, 87, 84, 83, 84, 80, 88, 89, 90, 88, 90, 91, 92, 94, 93, 92, 95, 94, 88, 92, 93, 88, 93, 89, 89, 93, 94, 89, 94, 90, 90, 94, 95, 90, 95, 91, 91, 95, 92, 91, 92, 88, 96, 97, 98, 96, 98, 99, 100, 102, 101, 100, 103, 102, 96, 100, 101, 96, 101, 97, 97, 101, 102, 97, 102, 98, 98, 102, 103, 98, 103, 99, 99, 103, 100, 99, 100, 96, 104, 105, 106, 104, 106, 107, 108, 110, 109, 108, 111, 110, 104, 108, 109, 104, 109, 105, 105, 109, 110, 105, 110, 106, 106, 110, 111, 106, 111, 107, 107, 111, 108, 107, 108, 104, 112, 113, 114, 112, 114, 115, 116, 118, 117, 116, 119, 118, 112, 116, 117, 112, 117, 113, 113, 117, 118, 113, 118, 114, 114, 118, 119, 114, 119, 115, 115, 119, 116, 115, 116, 112, 120, 121, 122, 120, 122, 123, 124, 126, 125, 124, 127, 126, 120, 124, 125, 120, 125, 121, 121, 125, 126, 121, 126, 122, 122, 126, 127, 122, 127, 123, 123, 127, 124, 123, 124, 120, 128, 129, 130, 128, 130, 131, 132, 134, 133, 132, 135, 134, 128, 132, 133, 128, 133, 129, 129, 133, 134, 129, 134, 130, 130, 134, 135, 130, 135, 131, 131, 135, 132, 131, 132, 128, 136, 137, 138, 136, 138, 139, 140, 142, 141, 140, 143, 142, 136, 140, 141, 136, 141, 137, 137, 141, 142, 137, 142, 138, 138, 142, 143, 138, 143, 139, 139, 143, 140, 139, 140, 136, 144, 145, 146, 144, 146, 147, 148, 150, 149, 148, 151, 150, 144, 148, 149, 144, 149, 145, 145, 149, 150, 145, 150, 146, 146, 150, 151, 146, 151, 147, 147, 151, 148, 147, 148, 144]
            point3f[] points = [(0, 0, -0.02), (4, 0, -0.02), (4, 3, -0.02), (0, 3, -0.02), (0, 0, -2.2351741e-10), (4, 0, -2.2351741e-10), (4, 3, -2.2351741e-10), (0, 3, -2.2351741e-10), (-0.059999943, -0.06, 2.9802323e-9), (4.06, -0.06, 2.9802323e-9), (4.06, -6.705523e-10, 2.9802323e-9), (-0.059999943, -6.705523e-10, 2.9802323e-9), (-0.059999943, -0.06, 0.35), (4.06, -0.06, 0.35), (4.06, -6.705523e-10, 0.35), (-0.059999943, -6.705523e-10, 0.35), (-0.059999943, 3, 2.9802323e-9), (4.06, 3, 2.9802323e-9), (4.06, 3.06, 2.9802323e-9), (-0.059999943, 3.06, 2.9802323e-9), (-0.059999943, 3, 0.35), (4.06, 3, 0.35), (4.06, 3.06, 0.35), (-0.059999943, 3.06, 0.35), (-0.06, 0, 2.9802323e-9), (-6.705523e-10, 0, 2.9802323e-9), (-6.705523e-10, 3, 2.9802323e-9), (-0.06, 3, 2.9802323e-9), (-0.06, 0, 0.35), (-6.705523e-10, 0, 0.35), (-6.705523e-10, 3, 0.35), (-0.06, 3, 0.35), (4, 0, 2.9802323e-9), (4.06, 0, 2.9802323e-9), (4.06, 3, 2.9802323e-9), (4, 3, 2.9802323e-9), (4, 0, 0.35), (4.06, 0, 0.35), (4.06, 3, 0.35), (4, 3, 0.35), (0.08999999, 2.19, -1.899898e-10), (0.81, 2.19, -1.899898e-10), (0.81, 2.91, -1.899898e-10), (0.08999999, 2.91, -1.899898e-10), (0.08999999, 2.19, 0.008), (0.81, 2.19, 0.008), (0.81, 2.91, 0.008), (0.08999999, 2.91, 0.008), (3.19, 2.19, -1.899898e-10), (3.91, 2.19, -1.899898e-10), (3.91, 2.91, -1.899898e-10), (3.19, 2.91, -1.899898e-10), (3.19, 2.19, 0.008), (3.91, 2.19, 0.008), (3.91, 2.91, 0.008), (3.19, 2.91, 0.008), (2.07, 0.24999997, -5.9604646e-9), (2.1, 0.24999997, -5.9604646e-9), (2.1, 1.45, -5.9604646e-9), (2.07, 1.45, -5.9604646e-9), (2.07, 0.24999997, 0.8), (2.1, 0.24999997, 0.8), (2.1, 1.45, 0.8), (2.07, 1.45, 0.8), (2.07, 0.24999997, -5.9604646e-9), (2.47, 0.24999997, -5.9604646e-9), (2.47, 1.45, -5.9604646e-9), (2.07, 1.45, -5.9604646e-9), (2.07, 0.24999997, 0.3), (2.47, 0.24999997, 0.3), (2.47, 1.45, 0.3), (2.07, 1.45, 0.3), (2.07, 0.25, -5.9604646e-9), (2.47, 0.25, -5.9604646e-9), (2.47, 0.28, -5.9604646e-9), (2.07, 0.28, -5.9604646e-9), (2.07, 0.25, 0.8), (2.47, 0.25, 0.8), (2.47, 0.28, 0.8), (2.07, 0.28, 0.8), (2.07, 1.42, -5.9604646e-9), (2.47, 1.42, -5.9604646e-9), (2.47, 1.45, -5.9604646e-9), (2.07, 1.45, -5.9604646e-9), (2.07, 1.42, 0.8), (2.47, 1.42, 0.8), (2.47, 1.45, 0.8), (2.07, 1.45, 0.8), (2.1, 0.28, 0.22), (2.47, 0.28, 0.22), (2.47, 1.42, 0.22), (2.1, 1.42, 0.22), (2.1, 0.28, 0.25), (2.47, 0.28, 0.25), (2.47, 1.42, 0.25), (2.1, 1.42, 0.25), (2.1, 0.28, 0.55), (2.47, 0.28, 0.55), (2.47, 1.42, 0.55), (2.1, 1.42, 0.55), (2.1, 0.28, 0.58), (2.47, 0.28, 0.58), (2.47, 1.42, 0.58), (2.1, 1.42, 0.58), (0.54, 0.29999998, -1.1920929e-8), (0.57, 0.29999998, -1.1920929e-8), (0.57, 1.4, -1.1920929e-8), (0.54, 1.4, -1.1920929e-8), (0.54, 0.29999998, 0.6), (0.57, 0.29999998, 0.6), (0.57, 1.4, 0.6), (0.54, 1.4, 0.6), (0.54, 0.29999998, -5.9604646e-9), (0.96, 0.29999998, -5.9604646e-9), (0.96, 1.4, -5.9604646e-9), (0.54, 1.4, -5.9604646e-9), (0.54, 0.29999998, 0.3), (0.96, 0.29999998, 0.3), (0.96, 1.4, 0.3), (0.54, 1.4, 0.3), (0.57, 0.33, 0.22), (0.96, 0.33, 0.22), (0.96, 1.37, 0.22), (0.57, 1.37, 0.22), (0.57, 0.33, 0.25), (0.96, 0.33, 0.25), (0.96, 1.37, 0.25), (0.57, 1.37, 0.25), (0.54, 0.29999998, 0.57), (0.96, 0.29999998, 0.57), (0.96, 1.4, 0.57), (0.54, 1.4, 0.57), (0.54, 0.29999998, 0.6), (0.96, 0.29999998, 0.6), (0.96, 1.4, 0.6), (0.54, 1.4, 0.6), (0.54, 0.3, -1.1920929e-8), (0.96, 0.3, -1.1920929e-8), (0.96, 0.33, -1.1920929e-8), (0.54, 0.33, -1.1920929e-8), (0.54, 0.3, 0.6), (0.96, 0.3, 0.6), (0.96, 0.33, 0.6), (0.54, 0.33, 0.6), (0.54, 1.37, -1.1920929e-8), (0.96, 1.37, -1.1920929e-8), (0.96, 1.4, -1.1920929e-8), (0.54, 1.4, -1.1920929e-8), (0.54, 1.37, 0.6), (0.96, 1.37, 0.6), (0.96, 1.4, 0.6), (0.54, 1.4, 0.6)]
            uniform token subdivisionScheme = "none"
            token visibility = "invisible"
        }
    }
}

